<?xml version="1.0" encoding="UTF-8" standalone="no"?>
<svg
   fill="#000000"
   viewBox="0 0 256 256"
   version="1.1"
   id="svg1"
   sodipodi:docname="musescore.svg"
   width="256"
   height="256"
   inkscape:version="1.4.2 (ebf0e940d0, 2025-05-08)"
   xmlns:inkscape="http://www.inkscape.org/namespaces/inkscape"
   xmlns:sodipodi="http://sodipodi.sourceforge.net/DTD/sodipodi-0.dtd"
   xmlns="http://www.w3.org/2000/svg"
   xmlns:svg="http://www.w3.org/2000/svg">
  <defs
     id="defs1" />
  <sodipodi:namedview
     id="namedview1"
     pagecolor="#ffffff"
     bordercolor="#000000"
     borderopacity="0.25"
     inkscape:showpageshadow="2"
     inkscape:pageopacity="0.0"
     inkscape:pagecheckerboard="0"
     inkscape:deskcolor="#d1d1d1"
     inkscape:zoom="0.92807765"
     inkscape:cx="45.793582"
     inkscape:cy="92.66466"
     inkscape:window-width="1876"
     inkscape:window-height="1006"
     inkscape:window-x="0"
     inkscape:window-y="0"
     inkscape:window-maximized="1"
     inkscape:current-layer="svg1" />
  <path
     d="m 76.232,71.555998 h 0.696 c 0.704,-27 21.416,-49.44 47.744,-49.44 17.2,0 29.48,7.36 35.8,17.52 -9.12,3.856 -16.144,12.976 -16.144,24.2 0,15.08 12.64,26.648001 28.08,26.648001 15.44,0 28.08,-12.976001 28.08,-30.152001 0,-29.104 -26.672,-55.7599985 -62.128,-55.7599985 -35.44,0 -62.48,28.3999985 -62.48,61.7199985 0,1.4 0,2.8 0.352,5.256 M 185.752,178.5 214.872,133.62 82.904,77.155998 l -0.352,0.344 103.2,100.992002 z m 37.2,-29.808 c 0,38.568 -33,65.216 -66.688,65.216 -26.328,0 -45.64,-9.464 -55.112,-22.44 11.936,-7.016 18.96,-18.936 18.96,-34.008 0,-22.448 -18.256,-40.68 -42.48,-40.68 -25.616,0 -45.632,20.688 -45.632,47.688 0,43.84 41.416,86.96 98.632,86.96 57.208,0.008 93.368,-44.872 93.368,-95.712 0,-2.808 0,-4.56 -0.352,-7.016 h -0.696 z"
     id="path1"
     sodipodi:nodetypes="ccscsssssccccccccscssscsccc"
     style="fill:#6659f3;fill-opacity:1;stroke-width:8" />
</svg>
